<mxfile host="app.diagrams.net" agent="Mozilla/5.0 (X11; Ubuntu; Linux x86_64; rv:141.0) Gecko/20100101 Firefox/141.0" version="28.1.1">
  <diagram name="Page-1" id="rZxvO-xGBDbaET3Zqq4u">
    <mxGraphModel dx="786" dy="719" grid="1" gridSize="10" guides="1" tooltips="1" connect="1" arrows="1" fold="1" page="1" pageScale="1" pageWidth="850" pageHeight="1100" math="0" shadow="0">
      <root>
        <mxCell id="0" />
        <mxCell id="1" parent="0" />
        <mxCell id="CZZduc1jLrHA5I96F7Oo-1" value="" style="shape=image;html=1;verticalAlign=top;verticalLabelPosition=bottom;labelBackgroundColor=#ffffff;imageAspect=0;aspect=fixed;image=https://icons.diagrams.net/icon-cache1/Kameleon_Free_Pack-2373/Hacker-1007.svg" vertex="1" parent="1">
          <mxGeometry x="370" y="329" width="110" height="110" as="geometry" />
        </mxCell>
        <mxCell id="CZZduc1jLrHA5I96F7Oo-6" style="edgeStyle=orthogonalEdgeStyle;rounded=0;orthogonalLoop=1;jettySize=auto;html=1;strokeWidth=3;" edge="1" parent="1" source="CZZduc1jLrHA5I96F7Oo-2" target="CZZduc1jLrHA5I96F7Oo-3">
          <mxGeometry relative="1" as="geometry" />
        </mxCell>
        <mxCell id="CZZduc1jLrHA5I96F7Oo-2" value="" style="verticalLabelPosition=bottom;html=1;verticalAlign=top;align=center;strokeColor=none;fillColor=#00BEF2;shape=mxgraph.azure.user;" vertex="1" parent="1">
          <mxGeometry x="230" y="240" width="50" height="50" as="geometry" />
        </mxCell>
        <mxCell id="CZZduc1jLrHA5I96F7Oo-3" value="" style="verticalLabelPosition=bottom;html=1;verticalAlign=top;align=center;strokeColor=none;fillColor=#00BEF2;shape=mxgraph.azure.user;" vertex="1" parent="1">
          <mxGeometry x="550" y="240" width="50" height="50" as="geometry" />
        </mxCell>
        <mxCell id="CZZduc1jLrHA5I96F7Oo-4" value="&lt;font style=&quot;font-size: 24px;&quot;&gt;Utente A&lt;/font&gt;" style="text;html=1;align=center;verticalAlign=middle;resizable=0;points=[];autosize=1;strokeColor=none;fillColor=none;" vertex="1" parent="1">
          <mxGeometry x="195" y="293" width="120" height="40" as="geometry" />
        </mxCell>
        <mxCell id="CZZduc1jLrHA5I96F7Oo-5" value="&lt;font style=&quot;font-size: 24px;&quot;&gt;Utente B&lt;/font&gt;" style="text;html=1;align=center;verticalAlign=middle;resizable=0;points=[];autosize=1;strokeColor=none;fillColor=none;" vertex="1" parent="1">
          <mxGeometry x="515" y="293" width="120" height="40" as="geometry" />
        </mxCell>
        <mxCell id="CZZduc1jLrHA5I96F7Oo-7" value="" style="html=1;verticalLabelPosition=bottom;align=center;labelBackgroundColor=#ffffff;verticalAlign=top;strokeWidth=2;strokeColor=#0080F0;shadow=0;dashed=0;shape=mxgraph.ios7.icons.mail;" vertex="1" parent="1">
          <mxGeometry x="320" y="220" width="50" height="26.5" as="geometry" />
        </mxCell>
        <mxCell id="CZZduc1jLrHA5I96F7Oo-8" value="&lt;font style=&quot;font-size: 24px;&quot;&gt;Intercettatore&lt;/font&gt;" style="text;html=1;align=center;verticalAlign=middle;resizable=0;points=[];autosize=1;strokeColor=none;fillColor=none;" vertex="1" parent="1">
          <mxGeometry x="345" y="419" width="160" height="40" as="geometry" />
        </mxCell>
        <mxCell id="CZZduc1jLrHA5I96F7Oo-9" value="&lt;font style=&quot;font-size: 20px;&quot;&gt;Messaggio Cifrato&lt;/font&gt;" style="text;html=1;align=center;verticalAlign=middle;resizable=0;points=[];autosize=1;strokeColor=none;fillColor=none;" vertex="1" parent="1">
          <mxGeometry x="250" y="180" width="180" height="40" as="geometry" />
        </mxCell>
      </root>
    </mxGraphModel>
  </diagram>
</mxfile>
